<?xml version="1.0" standalone="no"?>
<!DOCTYPE svg PUBLIC "-//W3C//DTD SVG 20010904//EN"
 "http://www.w3.org/TR/2001/REC-SVG-20010904/DTD/svg10.dtd">
<svg version="1.0" xmlns="http://www.w3.org/2000/svg"
 width="512.000000pt" height="512.000000pt" viewBox="0 0 512.000000 512.000000"
 preserveAspectRatio="xMidYMid meet">
<metadata>
Created by potrace 1.14, written by Peter Selinger 2001-2017
</metadata>
<g transform="translate(0.000000,512.000000) scale(0.100000,-0.100000)"
fill="#000000" stroke="none">
<path d="M1074 5040 c-71 -10 -150 -56 -190 -109 -67 -87 -64 -33 -64 -1213
l0 -1068 1508 -2 c1398 -3 1509 -4 1531 -20 13 -9 32 -30 42 -45 18 -27 19
-66 19 -808 0 -742 -1 -781 -19 -808 -10 -15 -29 -36 -42 -45 -22 -16 -133
-17 -1531 -20 l-1508 -2 0 -283 c0 -318 5 -351 65 -430 25 -32 55 -55 102 -79
l68 -33 1700 0 c1390 0 1708 2 1746 13 66 20 137 78 173 142 l31 55 -1 1658
c-2 1291 -5 1661 -14 1672 -11 13 -123 15 -844 15 -612 0 -835 3 -843 11 -9 9
-10 188 -6 695 5 548 4 686 -7 699 -11 13 -114 15 -939 14 -509 -1 -949 -5
-977 -9z"/>
<path d="M550 1765 l0 -375 115 0 115 0 0 150 0 150 120 0 119 0 3 -147 3
-148 118 -3 117 -3 0 376 0 376 -117 -3 -118 -3 -3 -127 -3 -128 -119 0 -120
0 0 130 0 130 -115 0 -115 0 0 -375z"/>
<path d="M1350 2045 l0 -95 120 0 120 0 0 -280 0 -281 113 3 112 3 3 278 2
277 115 0 115 0 0 95 0 95 -350 0 -350 0 0 -95z"/>
<path d="M2150 1765 l0 -375 95 0 95 0 2 261 3 261 66 -259 66 -258 88 0 88 0
66 259 66 259 3 -261 2 -262 95 0 95 0 0 375 0 376 -152 -3 -152 -3 -55 -219
-54 -220 -57 220 -56 219 -152 3 -152 3 0 -376z"/>
<path d="M3120 1765 l0 -375 295 0 295 0 0 95 0 95 -175 0 -175 0 0 280 0 280
-120 0 -120 0 0 -375z"/>
</g>
</svg>
